/* XPM */
static char * favourites_xpm[] = {
"16 16 32 1",
" 	c None",
".	c #FFEE98",
"+	c #FFDE37",
"@	c #FFE457",
"#	c #FFEB88",
"$	c #EBB34A",
"%	c #EBA327",
"&	c #EBAC3A",
"*	c #EBB756",
"=	c #EBCA81",
"-	c #FFF4B9",
";	c #FFF2AB",
">	c #EB9C17",
",	c #FFDB25",
"'	c #FFE97C",
")	c #EBCE88",
"!	c #EFCE7C",
"~	c #FFF9DB",
"{	c #FFD918",
"]	c #FFD400",
"^	c #FFE169",
"/	c #FFE66B",
"(	c #FFE147",
"_	c #FFE771",
":	c #EBC371",
"<	c #EBBC60",
"[	c #FDFDFC",
"}	c #EBAE40",
"|	c #FFEBA7",
"1	c #FFE974",
"2	c #FFE765",
"3	c #FFFFFF",
"      [3[       ",
"      3)3       ",
"     3)3=3      ",
"    3)3.~:3     ",
" 3333=3.~:3333  ",
"3)!)=3.#';<*$$3 ",
"3)333.#_2@--;&3 ",
" 3=3#'_@(+,_&3  ",
"  3:3/@(+{/&3   ",
"   3<3+,{]&3    ",
"  3<3+,_]]^%3   ",
"  3*#'/&^^^%3   ",
" 3*31}&3%%^|>3  ",
" 3$$}33 33>>>3  ",
" 3333     3333  ",
"                "};
