/* XPM */
static char * favouritesDisabled_xpm[] = {
"16 16 30 1",
" 	g None",
".	g #CFCFCF",
"+	g #FFFFFF",
"@	g #CCCCCC",
"#	g #EBEBEB",
"$	g #F8F8F8",
"%	g #C6C6C6",
"&	g #E8E8E8",
"*	g #E6E6E6",
"=	g #F0F0F0",
"-	g #BFBFBF",
";	g #BBBBBB",
">	g #B7B7B7",
",	g #E4E4E4",
"'	g #E3E3E3",
")	g #E0E0E0",
"!	g #F2F2F2",
"~	g #B1B1B1",
"{	g #DCDCDC",
"]	g #D9D9D9",
"^	g #D6D6D6",
"/	g #E2E2E2",
"(	g #D3D3D3",
"_	g #CECECE",
":	g #DFDFDF",
"<	g #A9A9A9",
"[	g #E5E5E5",
"}	g #B3B3B3",
"|	g #EAEAEA",
"1	g #A3A3A3",
"                ",
"       .        ",
"      .+@       ",
"     .+#$%      ",
"     @+#$%      ",
" ...@+#&*=-;>>  ",
" .+++#&,')!!=~  ",
"  @+&*,){]^,~   ",
"   %+/){](/~    ",
"    -+]^(_~     ",
"   -+]^,__:<    ",
"   ;&*/~:::<    ",
"  ;+[}~ <<:|1   ",
"  >>}     111   ",
"                ",
"                "};
