/* XPM */
static char * folder_xpm[] = {
"16 16 32 1",
" 	c None",
".	c #EBC651",
"+	c #FEF3B6",
"@	c #EBCF31",
"#	c #FFFBF3",
"$	c #F7E497",
"%	c #F3DB83",
"&	c #EBBC46",
"*	c #F8EAB5",
"=	c #EBB63D",
"-	c #FDF3C4",
";	c #FCF7E8",
">	c #FCF4CF",
",	c #EBD398",
"'	c #FCEEAC",
")	c #FBEEC3",
"!	c #F9E9A1",
"~	c #F6E3AA",
"{	c #EBCD79",
"]	c #F1D576",
"^	c #EBB237",
"/	c #EBAE32",
"(	c #EDCE69",
"_	c #F6E08D",
":	c #F9EABD",
"<	c #FFF7CE",
"[	c #FFF7C5",
"}	c #EBCF8B",
"|	c #EBD18C",
"1	c #FFF6D3",
"2	c #F6E6B0",
"3	c #FFFFFF",
"                ",
"                ",
"  33333         ",
" 3,,}{{33333333 ",
"3,3<<<[(..@@@@3 ",
"3,3<<<[[[[++[@3 ",
"3|#<<[.&&&==^/3 ",
"3.....;;;))*-/3 ",
"3.###;''!$$_)/3 ",
"3.1++''!$_%%*/3 ",
"3.>'''!$_%]]2/3 ",
"3&-''!$_%]((~/3 ",
"3&->>-):*2~~:/3 ",
"3&=====^^^^^^/3 ",
"333333333333333 ",
"                "};
