/* XPM */
static const char * package_xpm[] = {
"16 16 128 2",
"  	c None",
". 	c #FAE4BA",
"+ 	c #C3A262",
"@ 	c #FBDFA9",
"# 	c #B89759",
"$ 	c #A5761B",
"% 	c #E8C685",
"& 	c #DAB56F",
"* 	c #C1A061",
"= 	c #FDEFD5",
"- 	c #FAF0DE",
"; 	c #F4D496",
"> 	c #C5A464",
", 	c #D7B06D",
"' 	c #C4A363",
") 	c #F0D091",
"! 	c #A7781D",
"~ 	c #BE9D5E",
"{ 	c #FDEED1",
"] 	c #FDEFD4",
"^ 	c #E6C481",
"/ 	c #F3D395",
"( 	c #EAC988",
"_ 	c #FDF0D6",
": 	c #FEFDF9",
"< 	c #EECE90",
"[ 	c #FADFAD",
"} 	c #F9E3B8",
"| 	c #D3AD64",
"1 	c #FAE9C9",
"2 	c #D6B16B",
"3 	c #EFD8AE",
"4 	c #FBDDA4",
"5 	c #FEFBF5",
"6 	c #9C6F14",
"7 	c #FBE7C0",
"8 	c #A28141",
"9 	c #A17217",
"0 	c #FDFAF4",
"a 	c #CDAF75",
"b 	c #AA8744",
"c 	c #FCF9F3",
"d 	c #F1CD87",
"e 	c #FBE8C2",
"f 	c #E7C585",
"g 	c #FAE8C4",
"h 	c #EDCE90",
"i 	c #FAE5BA",
"j 	c #FEFBF6",
"k 	c #D2B47B",
"l 	c #A27318",
"m 	c #FAE8C2",
"n 	c #FAE8C3",
"o 	c #D9B878",
"p 	c #E9C889",
"q 	c #F3D394",
"r 	c #F0CF90",
"s 	c #FEFCF8",
"t 	c #D6B169",
"u 	c #FDEFD3",
"v 	c #FCE8C1",
"w 	c #F5D18B",
"x 	c #E6C584",
"y 	c #B59456",
"z 	c #FDFBF7",
"A 	c #FAE7C0",
"B 	c #FBECCE",
"C 	c #FDEBC9",
"D 	c #EDCB88",
"E 	c #FBE7BF",
"F 	c #EDCC8C",
"G 	c #F0DAB0",
"H 	c #A8884B",
"I 	c #FEFCF7",
"J 	c #FDF1D9",
"K 	c #FEF8ED",
"L 	c #E5C383",
"M 	c #EECC89",
"N 	c #FBEED2",
"O 	c #DBBB7F",
"P 	c #EFD091",
"Q 	c #F0D39C",
"R 	c #F5D698",
"S 	c #FAE3B2",
"T 	c #FAE3B4",
"U 	c #F6CF82",
"V 	c #BA995B",
"W 	c #EFD094",
"X 	c #FCF8F0",
"Y 	c #AD8432",
"Z 	c #FDFAF3",
"` 	c #AE8E50",
" .	c #FBE8C1",
"..	c #AB7C22",
"+.	c #FBE0AB",
"@.	c #F3DBAE",
"#.	c #FCE0AB",
"$.	c #F3E0BA",
"%.	c #FAE0AE",
"&.	c #A37419",
"*.	c #D6B67A",
"=.	c #F7D89B",
"-.	c #DFBB77",
";.	c #FAE9C3",
">.	c #DABA7B",
",.	c #F2D292",
"'.	c #EFD197",
").	c #F5D597",
"!.	c #F2D295",
"~.	c #FAE4B7",
"{.	c #ECD5A9",
"].	c #EED6AA",
"^.	c #FDF1D7",
"/.	c #F6CD7D",
"(.	c #F6CE7F",
"_.	c #9F7015",
":.	c #D4BA89",
"<.	c #FDEED2",
"[.	c #FAEAC8",
"}.	c #FDE8C0",
"|.	c #FBDEA5",
"1.	c #F5D08A",
"2.	c #F0D090",
"3.	c #EFCF90",
"4.	c #A87D2B",
"5.	c #B49355",
"6.	c #FEFBF4",
"7.	c #FFFFFF",
"            7.7.7.7.            ",
"        7.7.- * ~ $.7.7.        ",
"    7.7.- ' + +.= V y G 7.7.    ",
"7.7.- > > Q '.f ] |.4 ` H ].7.7.",
"7.:.> }.7 E } p ] u <.{ { 8 k 7.",
"7.' c _ J ^._ = t | & 3.) D 4.7.",
"7.+ : z 0 @ #.= & -.P M 1.=...7.",
"7.* : N B z Z = ^ W d ; ; R ! 7.",
"7.~ s 1 [.m . X @.< ) ,.q ; $ 7.",
"7.# I ;.A i T g O ( F r !./ 9 7.",
"7.5.j i ~.S %.n >.% ( h 2./ 6 7.",
"7.a + 6.5 [ @ e o ^ % ( )._.2 7.",
"7.7.3 # # K C  ., x L &._./.7.7.",
"    7.7.{.b Y v , ! l (.7.7.    ",
"        7.7.w *.$ U 7.7.        ",
"            7.7.7.7.            "};
