/* XPM */
static const char * page_xpm[] = {
"16 16 32 1",
" 	c None",
".	c #C7E3FE",
"+	c #ECF1F6",
"@	c #BBDCFD",
"#	c #E5EDF5",
"$	c #88AFC8",
"%	c #7697B4",
"&	c #577091",
"*	c #95CAFC",
"=	c #ABD4FB",
"-	c #49556B",
";	c #F2F6FA",
">	c #B6DAFC",
",	c #A4D1FB",
"'	c #89BBEC",
")	c #52617B",
"!	c #AED3E5",
"~	c #434B5C",
"{	c #D5E7F0",
"]	c #C0DFFD",
"^	c #B1D7FC",
"/	c #9AC0D6",
"(	c #A8CBDE",
"_	c #DEE7EF",
":	c #293143",
"<	c #3E4555",
"[	c #E2E9F0",
"}	c #B0D1E3",
"|	c #CBCCD1",
"1	c #9ECEFB",
"2	c #D5DBE4",
"3	c #FFFFFF",
"3333333333333   ",
"3{!}(//$$%%%%3  ",
"3!{#+#++####'&3 ",
"3}#.....]]];''&3",
"3(;....]]@@;;;)3",
"3/;...]]]@>>^;)3",
"3/;..]]]@>>^=;)3",
"3$;.]]@@>^^==;-3",
"3$;]]@>>^==,,#-3",
"3%+]]@>^==,,1#~3",
"3%+@@>^==,,11[~3",
"3%+@>>^=,,1**_<3",
"3%;@>^==,11**+<3",
"3&2;+##[[[[_+|:3",
"3%&&&))--~~<<:)3",
"3333333333333333"};
