/* XPM */
static char * property_item_container_add_xpm[] = {
"16 16 5 1",
" 	c None",
".	c #5A5A5A",
"+	c #FFFFFF",
"@	c #E5E5E5",
"#	c #CCCCCC",
"                ",
"                ",
"      ....      ",
"      .++.      ",
"      .+@.      ",
"      .+@.      ",
"  .....+@.....  ",
"  .++++@@@@@@.  ",
"  .+@@@@@####.  ",
"  .....@#.....  ",
"      .@#.      ",
"      .@#.      ",
"      .@#.      ",
"      ....      ",
"                ",
"                "};
