/* XPM */
static char * property_item_check_true_xpm[] = {
"16 16 32 1",
" 	c None",
".	c #5A5A5A",
"+	c #B0B0B0",
"@	c #DFDFDF",
"#	c #DEDEDE",
"$	c #DDDDDD",
"%	c #DCDCDC",
"&	c #FFFFFF",
"*	c #FEFEFE",
"=	c #FDFDFD",
"-	c #E8E8E8",
";	c #979797",
">	c #FAFAFA",
",	c #E9E9E9",
"'	c #FBFBFB",
")	c #8B8B8B",
"!	c #131313",
"~	c #C0C0C0",
"{	c #EBEBEB",
"]	c #8C8C8C",
"^	c #010101",
"/	c #030303",
"(	c #5C5C5C",
"_	c #A0A0A0",
":	c #000000",
"<	c #C5C5C5",
"[	c #5D5D5D",
"}	c #C1C1C1",
"|	c #C3C3C3",
"1	c #C2C2C2",
"2	c #5B5B5B",
"3	c #ECECEC",
" .............. ",
".+@@@#######$%+.",
".@&&&&****====-.",
".@&*=*====*;>=,.",
".@&=*****')!~&{.",
".#*=*&&&&]^/~&{.",
"(#**=&&&_:::<&{.",
"[#**/_&}:::|*&{.",
"[#**^:_:::1**&{.",
"[#**^::::}&*&&{.",
"2$**}:::}&**&&{.",
".%=&&}:}&**&&&+.",
".%=&&&}&**&&&+. ",
".%=&&&&&&&&&+.  ",
".+333{{{{{{+.   ",
" ...........    "};
