/* XPM */
static char * property_item_library_selector_button_xpm[] = {
"16 16 2 1",
" 	c None",
".	c #5A5A5A",
"                ",
"                ",
"                ",
"            ..  ",
"      .     ..  ",
"      ..    ..  ",
"      ...   ..  ",
"  ........  ..  ",
"  ......... ..  ",
"  ........  ..  ",
"      ...   ..  ",
"      ..    ..  ",
"      .     ..  ",
"            ..  ",
"                ",
"                "};
