/* XPM */
static char * property_item_check_false_xpm[] = {
"16 16 17 1",
" 	c None",
".	c #5A5A5A",
"+	c #B0B0B0",
"@	c #DFDFDF",
"#	c #DEDEDE",
"$	c #DDDDDD",
"%	c #DCDCDC",
"&	c #FFFFFF",
"*	c #FEFEFE",
"=	c #FDFDFD",
"-	c #E8E8E8",
";	c #E9E9E9",
">	c #EBEBEB",
",	c #5C5C5C",
"'	c #5D5D5D",
")	c #5B5B5B",
"!	c #ECECEC",
" .............. ",
".+@@@#######$%+.",
".@&&&&****====-.",
".@&*****======;.",
".@&=**&&***&&&>.",
".#*=&&&&&****&>.",
",#**=&&&*****&>.",
"'#****&*****&&>.",
"'#***&&&***&&&>.",
"'#**&&&&&*&&&&>.",
")$**&&&&&&&&&&>.",
".%=&&&&&&&&&&&+.",
".%=&&&&&&&&&&+. ",
".%=&&&&&&&&&+.  ",
".+!!!>>>>>>+.   ",
" ...........    "};
