/* XPM */
static char * property_tree_plus_xpm[] = {
"16 16 6 1",
" 	c None",
".	c #5A5A5A",
"+	c #8F8F8F",
"@	c #C1C1C1",
"#	c #DEDEDE",
"$	c #FFFFFF",
"                ",
"                ",
"                ",
"                ",
"     .......    ",
"    .+@####@.   ",
"    .@$$.$$$.   ",
"    .#$#.#$$.   ",
"    .#.....$.   ",
"    .#$#.#$$.   ",
"    .#$$.$$$.   ",
"    .@$$$$$@.   ",
"     .......    ",
"                ",
"                ",
"                "};
