/* XPM */
static char * property_item_pointer_replace_xpm[] = {
"16 16 5 1",
" 	c None",
".	c #5A5A5A",
"+	c #FFFFFF",
"@	c #CCCCCC",
"#	c #E5E5E5",
"                ",
"                ",
"    ..    ..    ",
"   .+@.  .@#.   ",
"   .+#@..@#@.   ",
"    .+#@@#@.    ",
"  ....+##@....  ",
" .+++++#######. ",
" .+######@@@@@. ",
"  ....+##@....  ",
"    .+#@@#@.    ",
"   .+#@..@#@.   ",
"   .#@.  .@#.   ",
"    ..    ..    ",
"                ",
"                "};
