/* XPM */
static char * property_item_file_selector_button_xpm[] = {
"16 16 8 1",
" 	c None",
".	c #5A5A5A",
"+	c #A3A3A3",
"@	c #8E8E8E",
"#	c #7A7A7A",
"$	c #FFFFFF",
"%	c #E5E5E5",
"&	c #CCCCCC",
"                ",
"                ",
"                ",
"  ...           ",
" .+++.          ",
" .+@++....      ",
" .+@@+++++.     ",
" .+@#@#.......  ",
" .+@#@.$%%%%%%. ",
" .+@@.$%%&&&&&. ",
" .+#.$%%&&&&&.  ",
" .+.$%%&&&&&.   ",
" ..$%%&&&&&.    ",
"  .........     ",
"                ",
"                "};
